<?xml version="1.0" encoding="utf-8"?>
<!-- Generator: Adobe Illustrator 27.6.1, SVG Export Plug-In . SVG Version: 6.00 Build 0)  -->
<svg version="1.1" id="Camada_1" xmlns="http://www.w3.org/2000/svg" xmlns:xlink="http://www.w3.org/1999/xlink" x="0px" y="0px"
	 viewBox="0 0 500 500" style="enable-background:new 0 0 500 500;" xml:space="preserve">
<style type="text/css">
	.st0{fill:#D1D1D1;}
	.st1{opacity:0.69;enable-background:new    ;}
	.st2{fill:#5B5B5B;}
	.st3{fill:#ADADAD;}
	.st4{fill:#575757;}
	.st5{fill:#545454;}
</style>
<g>
	<g>
		<path class="st0" d="M261.05,144.38L159.04,369.55c-5.15,11.39,3.18,24.29,15.67,24.29H384.4c12.64,0,20.97-13.21,15.51-24.62
			L292.22,144.05C285.92,130.87,267.07,131.06,261.05,144.38z"/>
	</g>
	<g class="st1">
		<path class="st2" d="M172.89,223.93l-69.48,153.38c-3.51,7.75,2.16,16.54,10.67,16.54h142.84c8.61,0,14.29-8.98,10.56-16.76
			l-73.35-153.38C189.84,214.71,177.01,214.84,172.89,223.93z"/>
	</g>
	<g>
		<path class="st3" d="M402.69,131.77L247.32,295.45c-9.26,9.75,3.79,21.38,24.01,21.38h176.76c19.78,0,35.81-8.7,35.81-19.44
			V151.23c0-10.75-16.06-19.47-35.87-19.47L402.69,131.77L402.69,131.77z"/>
	</g>
	<g>
		<path class="st3" d="M414.06,75.35L251.08,208.47c-9.26,8.84,3.79,19.34,24.01,19.34h176.76c19.78,0,35.81-7.87,35.81-17.59V77.93
			c0-9.73-3.38-41.46-35.87-17.64L414.06,75.35z"/>
	</g>
	<g>
		<path class="st3" d="M404.68,217.04L257.2,370.1c-8.8,9.12,3.6,19.98,22.8,19.98h167.78c18.76,0,33.99-8.14,33.99-18.18V235.24
			c0-10.06-15.24-18.2-34.05-18.2L404.68,217.04L404.68,217.04z"/>
	</g>
	<g>
		<path class="st4" d="M101.62,57.96H52.84c-4.05,0-7.32-3.29-7.32-7.32V22.47c0-4.05,3.29-7.32,7.32-7.32h48.78
			c4.05,0,7.32,3.29,7.32,7.32v28.17C108.95,54.69,105.66,57.96,101.62,57.96z"/>
	</g>
	<g class="st1">
		<path class="st4" d="M177.59,57.96h-48.78c-4.05,0-7.32-3.29-7.32-7.32V22.47c0-4.05,3.29-7.32,7.32-7.32h48.78
			c4.05,0,7.32,3.29,7.32,7.32v28.17C184.91,54.69,181.64,57.96,177.59,57.96z"/>
	</g>
	<g>
		<path class="st4" d="M446.89,403.2H52.72c-26.4,0-47.87-21.47-47.87-47.87V92.94c0-26.4,21.47-47.87,47.87-47.87h139.96
			c4.76,0,8.61,3.85,8.61,8.61s-3.85,8.61-8.61,8.61H52.72c-16.9,0-30.66,13.76-30.66,30.66v262.38c0,16.9,13.76,30.66,30.66,30.66
			h394.17c16.9,0,30.66-13.76,30.66-30.66V92.94c0-4.76,3.85-8.61,8.61-8.61s8.61,3.85,8.61,8.61v262.38
			C494.76,381.72,473.29,403.2,446.89,403.2z"/>
	</g>
	<g id="Camada_2_00000116221234573153461980000011791640348460878777_">
		<g>
			<g>
				<g>
					<path class="st3" d="M22.08,465.51h35.81v12.83H7.32v-65.13h49.55v12.75H22.08v13.21h32.94v12.29H22.08V465.51L22.08,465.51z"
						/>
				</g>
				<g>
					<path class="st3" d="M126.65,484.86l-9-8.92c-5.13,2.68-11.1,4.01-17.9,4.01c-6.98,0-13.13-1.42-18.42-4.24
						c-5.29-2.82-9.37-6.81-12.25-11.96c-2.86-5.15-4.32-11.13-4.32-17.95s1.44-12.82,4.32-17.95c2.86-5.15,6.96-9.12,12.25-11.96
						c5.29-2.82,11.42-4.24,18.42-4.24c6.98,0,13.13,1.42,18.42,4.24c5.29,2.82,9.37,6.81,12.25,11.96
						c2.86,5.15,4.32,11.13,4.32,17.95c0,7.87-1.92,14.6-5.76,20.19l8.26,8.37L126.65,484.86z M110.08,463.78
						c2.99-1.71,5.32-4.12,6.96-7.21c1.64-3.1,2.46-6.7,2.46-10.8s-0.81-7.68-2.46-10.8c-1.64-3.1-3.96-5.51-6.96-7.21
						c-2.99-1.71-6.45-2.55-10.34-2.55s-7.34,0.85-10.3,2.55c-2.97,1.71-5.27,4.12-6.9,7.21c-1.64,3.1-2.46,6.7-2.46,10.8
						s0.81,7.7,2.46,10.8c1.64,3.1,3.94,5.51,6.9,7.21c2.97,1.71,6.4,2.55,10.3,2.55S107.09,465.48,110.08,463.78z"/>
				</g>
				<g>
					<path class="st4" d="M179.47,475.54c-5.29-2.86-9.37-6.85-12.25-12c-2.86-5.15-4.32-11.06-4.32-17.76s1.47-12.64,4.4-17.83
						s7.03-9.17,12.29-12c5.26-2.82,11.25-4.24,18-4.24c9.59,0,17.83,3.38,24.68,10.14l-9.37,9.41c-4.15-3.98-9.12-5.96-14.93-5.96
						c-3.9,0-7.36,0.85-10.34,2.55c-2.99,1.71-5.32,4.12-6.96,7.21c-1.64,3.1-2.46,6.67-2.46,10.69c0,4.04,0.81,7.61,2.46,10.69
						c1.64,3.1,3.96,5.51,6.96,7.21c2.99,1.71,6.45,2.55,10.34,2.55c3.1,0,6.06-0.56,8.9-1.67c2.85-1.11,5.32-2.74,7.42-4.84
						l8.9,9.95c-6.98,6.76-15.43,10.14-25.32,10.14C190.91,479.83,184.76,478.41,179.47,475.54z"/>
				</g>
				<g>
					<path class="st4" d="M238.29,476.34c-3.8-2.02-6.71-4.82-8.76-8.42c-2.05-3.6-3.05-7.79-3.05-12.57s1.02-8.97,3.05-12.57
						c2.05-3.6,4.96-6.4,8.76-8.42c3.8-2.02,8.23-3.02,13.32-3.02c5.07,0,9.53,1,13.35,3.02c3.83,2.02,6.78,4.82,8.81,8.42
						c2.05,3.6,3.05,7.79,3.05,12.57s-1.02,8.97-3.05,12.57c-2.05,3.6-4.98,6.4-8.81,8.42c-3.83,2.02-8.29,3.02-13.35,3.02
						C246.54,479.36,242.1,478.36,238.29,476.34z M259.41,463.74c1.99-2.18,2.97-4.96,2.97-8.37s-0.99-6.21-2.97-8.37
						c-1.99-2.18-4.57-3.26-7.79-3.26c-3.16,0-5.71,1.1-7.7,3.26c-1.99,2.18-2.97,4.96-2.97,8.37s0.99,6.21,2.97,8.37
						c1.99,2.16,4.55,3.26,7.7,3.26C254.84,466.98,257.42,465.9,259.41,463.74z"/>
				</g>
				<g>
					<path class="st4" d="M327.07,436.94c3.38,3.72,5.05,8.87,5.05,15.45v25.96h-14.57v-25.13c0-2.99-0.74-5.31-2.24-6.98
						s-3.52-2.5-6.12-2.5c-2.85,0-5.13,0.97-6.85,2.88c-1.74,1.92-2.6,4.44-2.6,7.54v24.19h-14.57v-45.96h12.61l0.92,5.4
						c1.8-2.05,3.94-3.63,6.45-4.76c2.5-1.13,5.27-1.67,8.29-1.67C319.17,431.35,323.71,433.21,327.07,436.94z"/>
				</g>
				<g>
					<path class="st4" d="M375.1,476.58c-3.58,1.8-7.64,2.69-12.14,2.69c-5.01,0-8.97-1.41-11.88-4.24
						c-2.91-2.82-4.37-7.36-4.37-13.63V444h-7.79v-11.64h7.79V420.9l14.48-1.58v13.02h11.41v11.64h-11.41v17.4
						c0,1.86,0.47,3.26,1.39,4.13c0.92,0.91,2.19,1.36,3.8,1.36c1.8,0,3.57-0.44,5.29-1.3L375.1,476.58z"/>
				</g>
				<g>
					<path class="st4" d="M413.98,432.52c2.11,0.78,3.93,1.91,5.48,3.4l-6.12,10.69c-1.3-0.8-2.5-1.39-3.63-1.77
						c-1.13-0.38-2.3-0.56-3.52-0.56c-3.1,0-5.54,0.99-7.34,2.99c-1.8,1.99-2.69,4.9-2.69,8.75v22.33h-14.57v-45.96h12.71l1.11,5.77
						c2.97-4.52,7.04-6.79,12.25-6.79C409.75,431.35,411.87,431.74,413.98,432.52z"/>
				</g>
				<g>
					<path class="st4" d="M432.4,476.34c-3.8-2.02-6.71-4.82-8.76-8.42c-2.05-3.6-3.05-7.79-3.05-12.57s1.02-8.97,3.05-12.57
						c2.05-3.6,4.96-6.4,8.76-8.42c3.8-2.02,8.23-3.02,13.32-3.02c5.07,0,9.53,1,13.35,3.02c3.83,2.02,6.78,4.82,8.81,8.42
						c2.05,3.6,3.05,7.79,3.05,12.57s-1.02,8.97-3.05,12.57c-2.05,3.6-4.98,6.4-8.81,8.42c-3.83,2.02-8.29,3.02-13.35,3.02
						C440.63,479.36,436.18,478.36,432.4,476.34z M453.49,463.74c1.99-2.18,2.97-4.96,2.97-8.37s-0.99-6.21-2.97-8.37
						c-1.99-2.18-4.57-3.26-7.79-3.26c-3.16,0-5.71,1.1-7.7,3.26c-1.99,2.18-2.97,4.96-2.97,8.37s0.99,6.21,2.97,8.37
						c1.99,2.18,4.55,3.26,7.7,3.26C448.92,466.98,451.52,465.9,453.49,463.74z"/>
				</g>
				<g>
					<path class="st4" d="M479.28,413.21h14.57v65.13h-14.57V413.21z"/>
				</g>
			</g>
		</g>
		<g>
			<path class="st5" d="M486.56,243.83c-4.74,0-8.59-3.83-8.61-8.59l-0.41-171.76v-6.71c-10.86,0.09-21.61,3.72-30.31,10.27
				l-9.11,6.84c-15.43,11.58-36.75,13.33-51.85,4.26l-22.57-13.6c-17.11-10.3-36.34-10.45-51.49-0.44L292.6,77.09
				c-14.46,9.59-33.26,9.72-47.87,0.34l-16.84-10.81c-2.9-1.86-5.99-3.52-9.23-4.95c-4.35-1.91-6.34-7-4.41-11.35
				c1.91-4.35,7-6.34,11.35-4.41c4.05,1.78,7.97,3.88,11.61,6.21l16.82,10.81c8.87,5.7,20.28,5.62,29.08-0.2l19.62-12.99
				c20.81-13.77,46.93-13.76,69.86,0.05l22.57,13.6c8.94,5.38,22.97,3.98,32.63-3.27l9.11-6.84c11.77-8.84,26.34-13.71,41.05-13.71
				c9.26,0,16.81,7.54,16.81,16.81v7.1l0.41,171.74c0.02,4.76-3.83,8.62-8.59,8.62C486.58,243.83,486.56,243.83,486.56,243.83z"/>
		</g>
	</g>
</g>
</svg>
